
#include "Song.h"

const SongNotes Bonus = {
  "Bonus",
  118,  // Tempo
  140,   // Number of Notes
  {
    {NOTE_REST, NOTE_TYPE_QUARTER, 0},
    {NOTE_REST, NOTE_TYPE_EIGHTH, 0},
    {NOTE_CS5, NOTE_TYPE_SIXTEENTH, 0},
    {NOTE_B4, NOTE_TYPE_SIXTEENTH, 0},
    {NOTE_CS5, NOTE_TYPE_QUARTER, 0},
    {NOTE_FS4, NOTE_TYPE_QUARTER, 1},

    //--

    {NOTE_FS4, NOTE_TYPE_QUARTER_DOT, 0},
    {NOTE_D5, NOTE_TYPE_SIXTEENTH, 0},
    {NOTE_CS5, NOTE_TYPE_SIXTEENTH, 0},
    {NOTE_D5, NOTE_TYPE_EIGHTH, 0},
    {NOTE_CS5, NOTE_TYPE_EIGHTH, 0},
    {NOTE_B4, NOTE_TYPE_QUARTER, 1},

    //--

    {NOTE_B4, NOTE_TYPE_QUARTER_DOT, 0},
    {NOTE_D5, NOTE_TYPE_SIXTEENTH, 0},
    {NOTE_CS5, NOTE_TYPE_SIXTEENTH, 0},
    {NOTE_D5, NOTE_TYPE_QUARTER, 0},
    {NOTE_FS4, NOTE_TYPE_QUARTER, 1},

    //--

    {NOTE_FS4, NOTE_TYPE_QUARTER_DOT, 0},
    {NOTE_B4, NOTE_TYPE_SIXTEENTH, 0},
    {NOTE_A4, NOTE_TYPE_SIXTEENTH, 0},
    {NOTE_B4, NOTE_TYPE_EIGHTH, 0},
    {NOTE_A4, NOTE_TYPE_EIGHTH, 0},
    {NOTE_GS4, NOTE_TYPE_EIGHTH, 0},
    {NOTE_B4, NOTE_TYPE_EIGHTH, 0},

    //--

    {NOTE_A4, NOTE_TYPE_QUARTER_DOT, 0},
    {NOTE_CS5, NOTE_TYPE_SIXTEENTH, 0},
    {NOTE_B4, NOTE_TYPE_SIXTEENTH, 0},
    {NOTE_CS5, NOTE_TYPE_QUARTER, 0},
    {NOTE_FS4, NOTE_TYPE_QUARTER, 1},

    //--

    {NOTE_FS4, NOTE_TYPE_QUARTER_DOT, 0},
    {NOTE_D5, NOTE_TYPE_SIXTEENTH, 0},
    {NOTE_CS5, NOTE_TYPE_SIXTEENTH, 0},
    {NOTE_D5, NOTE_TYPE_EIGHTH, 0},
    {NOTE_CS5, NOTE_TYPE_EIGHTH, 0},
    {NOTE_B4, NOTE_TYPE_QUARTER, 1},

    //--

    {NOTE_B4, NOTE_TYPE_QUARTER_DOT, 0},
    {NOTE_D5, NOTE_TYPE_SIXTEENTH, 0},
    {NOTE_CS5, NOTE_TYPE_SIXTEENTH, 0},
    {NOTE_D5, NOTE_TYPE_QUARTER, 0},
    {NOTE_FS4, NOTE_TYPE_QUARTER, 1},

    //--

    {NOTE_FS4, NOTE_TYPE_QUARTER_DOT, 0},
    {NOTE_B4, NOTE_TYPE_SIXTEENTH, 0},
    {NOTE_A4, NOTE_TYPE_SIXTEENTH, 0},
    {NOTE_B4, NOTE_TYPE_EIGHTH, 0},
    {NOTE_A4, NOTE_TYPE_EIGHTH, 0},
    {NOTE_GS4, NOTE_TYPE_EIGHTH, 0},
    {NOTE_B4, NOTE_TYPE_EIGHTH, 0},

    //--

    {NOTE_A4, NOTE_TYPE_QUARTER_DOT, 0},
    {NOTE_GS4, NOTE_TYPE_SIXTEENTH, 0},
    {NOTE_A4, NOTE_TYPE_SIXTEENTH, 0},
    {NOTE_B4, NOTE_TYPE_QUARTER_DOT, 0},
    {NOTE_A4, NOTE_TYPE_SIXTEENTH, 0},
    {NOTE_B4, NOTE_TYPE_SIXTEENTH, 0},

    //--

    {NOTE_CS5, NOTE_TYPE_EIGHTH, 0},
    {NOTE_B4, NOTE_TYPE_EIGHTH, 0},
    {NOTE_A4, NOTE_TYPE_EIGHTH, 0},
    {NOTE_GS4, NOTE_TYPE_EIGHTH, 0},
    {NOTE_FS4, NOTE_TYPE_QUARTER, 0},
    {NOTE_D5, NOTE_TYPE_QUARTER, 0},

    //--

    {NOTE_CS5, NOTE_TYPE_HALF, 0},
    {NOTE_CS5, NOTE_TYPE_QUARTER, 0},
    {NOTE_D5, NOTE_TYPE_EIGHTH, 0},
    {NOTE_CS5, NOTE_TYPE_SIXTEENTH, 0},
    {NOTE_B4, NOTE_TYPE_SIXTEENTH, 0},

    //--

    {NOTE_CS5, NOTE_TYPE_WHOLE, 0},

    //--

    {NOTE_REST, NOTE_TYPE_QUARTER, 0},
    {NOTE_REST, NOTE_TYPE_EIGHTH, 0},
    {NOTE_CS5, NOTE_TYPE_SIXTEENTH, 0},
    {NOTE_B4, NOTE_TYPE_SIXTEENTH, 0},
    {NOTE_CS5, NOTE_TYPE_QUARTER, 0},
    {NOTE_FS4, NOTE_TYPE_QUARTER, 1},

    //--

    {NOTE_FS4, NOTE_TYPE_QUARTER_DOT, 0},
    {NOTE_D5, NOTE_TYPE_SIXTEENTH, 0},
    {NOTE_CS5, NOTE_TYPE_SIXTEENTH, 0},
    {NOTE_D5, NOTE_TYPE_EIGHTH, 0},
    {NOTE_CS5, NOTE_TYPE_EIGHTH, 0},
    {NOTE_B4, NOTE_TYPE_QUARTER, 1},

    //--

    {NOTE_B4, NOTE_TYPE_QUARTER_DOT, 0},
    {NOTE_D5, NOTE_TYPE_SIXTEENTH, 0},
    {NOTE_CS5, NOTE_TYPE_SIXTEENTH, 0},
    {NOTE_D5, NOTE_TYPE_QUARTER, 0},
    {NOTE_FS4, NOTE_TYPE_QUARTER, 1},

    //--

    {NOTE_FS4, NOTE_TYPE_QUARTER_DOT, 0},
    {NOTE_B4, NOTE_TYPE_SIXTEENTH, 0},
    {NOTE_A4, NOTE_TYPE_SIXTEENTH, 0},
    {NOTE_B4, NOTE_TYPE_EIGHTH, 0},
    {NOTE_A4, NOTE_TYPE_EIGHTH, 0},
    {NOTE_GS4, NOTE_TYPE_EIGHTH, 0},
    {NOTE_B4, NOTE_TYPE_EIGHTH, 0},

    //--

    {NOTE_A4, NOTE_TYPE_QUARTER_DOT, 0},
    {NOTE_CS5, NOTE_TYPE_SIXTEENTH, 0},
    {NOTE_B4, NOTE_TYPE_SIXTEENTH, 0},
    {NOTE_CS5, NOTE_TYPE_QUARTER, 0},
    {NOTE_FS4, NOTE_TYPE_QUARTER, 1},

    //--

    {NOTE_FS4, NOTE_TYPE_QUARTER_DOT, 0},
    {NOTE_D5, NOTE_TYPE_SIXTEENTH, 0},
    {NOTE_CS5, NOTE_TYPE_SIXTEENTH, 0},
    {NOTE_D5, NOTE_TYPE_EIGHTH, 0},
    {NOTE_CS5, NOTE_TYPE_EIGHTH, 0},
    {NOTE_B4, NOTE_TYPE_QUARTER, 1},

    //--

    {NOTE_B4, NOTE_TYPE_QUARTER_DOT, 0},
    {NOTE_D5, NOTE_TYPE_SIXTEENTH, 0},
    {NOTE_CS5, NOTE_TYPE_SIXTEENTH, 0},
    {NOTE_D5, NOTE_TYPE_QUARTER, 0},
    {NOTE_FS4, NOTE_TYPE_QUARTER, 1},

    //--

    {NOTE_FS4, NOTE_TYPE_QUARTER_DOT, 0},
    {NOTE_B4, NOTE_TYPE_SIXTEENTH, 0},
    {NOTE_A4, NOTE_TYPE_SIXTEENTH, 0},
    {NOTE_B4, NOTE_TYPE_EIGHTH, 0},
    {NOTE_A4, NOTE_TYPE_EIGHTH, 0},
    {NOTE_GS4, NOTE_TYPE_EIGHTH, 0},
    {NOTE_B4, NOTE_TYPE_EIGHTH, 0},

    //--

    {NOTE_A4, NOTE_TYPE_QUARTER_DOT, 0},
    {NOTE_GS4, NOTE_TYPE_SIXTEENTH, 0},
    {NOTE_A4, NOTE_TYPE_SIXTEENTH, 0},
    {NOTE_B4, NOTE_TYPE_QUARTER_DOT, 0},
    {NOTE_A4, NOTE_TYPE_SIXTEENTH, 0},
    {NOTE_B4, NOTE_TYPE_SIXTEENTH, 0},

    //--

    {NOTE_CS5, NOTE_TYPE_EIGHTH, 0},
    {NOTE_B4, NOTE_TYPE_EIGHTH, 0},
    {NOTE_A4, NOTE_TYPE_EIGHTH, 0},
    {NOTE_GS4, NOTE_TYPE_EIGHTH, 0},
    {NOTE_FS4, NOTE_TYPE_QUARTER, 0},
    {NOTE_D5, NOTE_TYPE_QUARTER, 0},

    //--

    {NOTE_CS5, NOTE_TYPE_HALF, 0},
    {NOTE_CS5, NOTE_TYPE_QUARTER_TRIPLET_DOUBLE, 0},
    {NOTE_D5, NOTE_TYPE_QUARTER_TRIPLET_DOUBLE, 0},
    {NOTE_CS5, NOTE_TYPE_QUARTER_TRIPLET, 0},
    {NOTE_B4, NOTE_TYPE_QUARTER_TRIPLET, 0},

    //--

    {NOTE_CS5, NOTE_TYPE_HALF, 0},
    {NOTE_REST, NOTE_TYPE_QUARTER, 0},
    {NOTE_CS5, NOTE_TYPE_QUARTER, 0},

    //--

    {NOTE_FS4, NOTE_TYPE_HALF_DOT, 0},
    {NOTE_E4, NOTE_TYPE_QUARTER, 0},

    //--

    {NOTE_FS4, NOTE_TYPE_QUARTER, 0},
    {NOTE_A4, NOTE_TYPE_QUARTER, 0},
    {NOTE_CS4, NOTE_TYPE_QUARTER, 0},
    {NOTE_E4, NOTE_TYPE_QUARTER, 0},

    //--

    {NOTE_FS4, NOTE_TYPE_WHOLE, 0},
  }
};
