
#include "Song.h"

const SongNotes Fanfare = {
  "Fanfare",
  130,  // Tempo
  89,   // Number of Notes
  {
    {NOTE_D3, NOTE_TYPE_QUARTER_NINELET, 0},
    {NOTE_FS3, NOTE_TYPE_QUARTER_NINELET, 0},
    {NOTE_A3, NOTE_TYPE_QUARTER_NINELET, 0},
    {NOTE_D4, NOTE_TYPE_QUARTER_NINELET, 0},
    {NOTE_FS4, NOTE_TYPE_QUARTER_NINELET, 0},
    {NOTE_A4, NOTE_TYPE_QUARTER_NINELET, 0},
    {NOTE_D5, NOTE_TYPE_QUARTER_NINELET, 0},
    {NOTE_FS5, NOTE_TYPE_QUARTER_NINELET, 0},
    {NOTE_A5, NOTE_TYPE_QUARTER_NINELET, 0},

    //--

    {NOTE_D4, NOTE_TYPE_QUARTER_TRIPLET, 0},
    {NOTE_D4, NOTE_TYPE_QUARTER_TRIPLET, 0},
    {NOTE_D4, NOTE_TYPE_QUARTER_TRIPLET, 0},
    {NOTE_AS3, NOTE_TYPE_QUARTER, 0},
    {NOTE_C4, NOTE_TYPE_QUARTER, 0},

    //--

    {NOTE_D4, NOTE_TYPE_QUARTER_TRIPLET_DOUBLE, 0},
    {NOTE_C4, NOTE_TYPE_QUARTER_TRIPLET, 0},
    {NOTE_D4, NOTE_TYPE_HALF_DOT, 0},

    //--

    {NOTE_A3, NOTE_TYPE_QUARTER, 0},
    {NOTE_G3, NOTE_TYPE_QUARTER, 0},
    {NOTE_A3, NOTE_TYPE_QUARTER, 0},
    {NOTE_G3, NOTE_TYPE_EIGHTH, 0},
    {NOTE_C4, NOTE_TYPE_EIGHTH, 1},

    //--

    {NOTE_C4, NOTE_TYPE_EIGHTH, 0},
    {NOTE_C4, NOTE_TYPE_EIGHTH, 0},
    {NOTE_B3, NOTE_TYPE_QUARTER, 0},
    {NOTE_C4, NOTE_TYPE_EIGHTH, 0},
    {NOTE_B3, NOTE_TYPE_EIGHTH, 1},
    {NOTE_B3, NOTE_TYPE_EIGHTH, 0},
    {NOTE_B3, NOTE_TYPE_EIGHTH, 0},

    //--

    {NOTE_A3, NOTE_TYPE_QUARTER, 0},
    {NOTE_G3, NOTE_TYPE_QUARTER, 0},
    {NOTE_FS3, NOTE_TYPE_QUARTER, 0},
    {NOTE_G3, NOTE_TYPE_EIGHTH, 0},
    {NOTE_E3, NOTE_TYPE_EIGHTH, 1},

    //--

    {NOTE_E3, NOTE_TYPE_WHOLE, 0},

    //--

    {NOTE_A3, NOTE_TYPE_QUARTER, 0},
    {NOTE_G3, NOTE_TYPE_QUARTER, 0},
    {NOTE_A3, NOTE_TYPE_QUARTER, 0},
    {NOTE_G3, NOTE_TYPE_EIGHTH, 0},
    {NOTE_C4, NOTE_TYPE_EIGHTH, 1},

    //--

    {NOTE_C4, NOTE_TYPE_EIGHTH, 0},
    {NOTE_C4, NOTE_TYPE_EIGHTH, 0},
    {NOTE_B3, NOTE_TYPE_QUARTER, 0},
    {NOTE_C4, NOTE_TYPE_EIGHTH, 0},
    {NOTE_B3, NOTE_TYPE_EIGHTH, 1},
    {NOTE_B3, NOTE_TYPE_EIGHTH, 0},
    {NOTE_B3, NOTE_TYPE_EIGHTH, 0},

    //--

    {NOTE_A3, NOTE_TYPE_QUARTER, 0},
    {NOTE_G3, NOTE_TYPE_QUARTER, 0},
    {NOTE_A3, NOTE_TYPE_QUARTER, 0},
    {NOTE_C4, NOTE_TYPE_EIGHTH, 0},
    {NOTE_D4, NOTE_TYPE_EIGHTH, 1},

    //--

    {NOTE_D4, NOTE_TYPE_WHOLE, 0},

    //--

    {NOTE_A3, NOTE_TYPE_QUARTER, 0},
    {NOTE_G3, NOTE_TYPE_QUARTER, 0},
    {NOTE_A3, NOTE_TYPE_QUARTER, 0},
    {NOTE_G3, NOTE_TYPE_EIGHTH, 0},
    {NOTE_C4, NOTE_TYPE_EIGHTH, 1},

    //--

    {NOTE_C4, NOTE_TYPE_EIGHTH, 0},
    {NOTE_C4, NOTE_TYPE_EIGHTH, 0},
    {NOTE_B3, NOTE_TYPE_QUARTER, 0},
    {NOTE_C4, NOTE_TYPE_EIGHTH, 0},
    {NOTE_B3, NOTE_TYPE_EIGHTH, 1},
    {NOTE_B3, NOTE_TYPE_EIGHTH, 0},
    {NOTE_B3, NOTE_TYPE_EIGHTH, 0},

    //--

    {NOTE_A3, NOTE_TYPE_QUARTER, 0},
    {NOTE_G3, NOTE_TYPE_QUARTER, 0},
    {NOTE_FS3, NOTE_TYPE_QUARTER, 0},
    {NOTE_G3, NOTE_TYPE_EIGHTH, 0},
    {NOTE_E3, NOTE_TYPE_EIGHTH, 1},

    //--

    {NOTE_E3, NOTE_TYPE_WHOLE, 0},

    //--

    {NOTE_A3, NOTE_TYPE_QUARTER, 0},
    {NOTE_G3, NOTE_TYPE_QUARTER, 0},
    {NOTE_A3, NOTE_TYPE_QUARTER, 0},
    {NOTE_G3, NOTE_TYPE_EIGHTH, 0},
    {NOTE_C4, NOTE_TYPE_EIGHTH, 1},

    //--

    {NOTE_C4, NOTE_TYPE_EIGHTH, 0},
    {NOTE_C4, NOTE_TYPE_EIGHTH, 0},
    {NOTE_B3, NOTE_TYPE_QUARTER, 0},
    {NOTE_C4, NOTE_TYPE_EIGHTH, 0},
    {NOTE_B3, NOTE_TYPE_EIGHTH, 1},
    {NOTE_B3, NOTE_TYPE_EIGHTH, 0},
    {NOTE_B3, NOTE_TYPE_EIGHTH, 0},

    //--

    {NOTE_A3, NOTE_TYPE_QUARTER, 0},
    {NOTE_G3, NOTE_TYPE_QUARTER, 0},
    {NOTE_A3, NOTE_TYPE_QUARTER, 0},
    {NOTE_C4, NOTE_TYPE_EIGHTH, 0},
    {NOTE_D4, NOTE_TYPE_EIGHTH, 1},

    //--

    {NOTE_D4, NOTE_TYPE_WHOLE, 0},
  }
};
