/**
  * @file songs/RightRound.c
  * @brief Note sequence asset for "RightRound".
  *
  * Defines a `SongNotes` constant with the title, tempo, and ordered note
  * events used by the audio/synth playback system. See `Song.h` for structure
  * details and playback integration.
  *
  * Usage
  * - Reference the symbol `RightRound` to schedule or play this melody.
  *
  * Notes
  * - All timing is encoded via `NoteType`; rests use `NOTE_REST` entries.
  */
#include "Song.h"

const SongNotes RightRound = {
  "RightRound",
  125,  // Tempo
  116,   // Number of Notes
  {
    {NOTE_REST, NOTE_TYPE_QUARTER, 0},
    {NOTE_A3, NOTE_TYPE_QUARTER, 0},
    {NOTE_A3, NOTE_TYPE_QUARTER, 0},
    {NOTE_A3, NOTE_TYPE_QUARTER, 0},

    //--

    {NOTE_C4, NOTE_TYPE_QUARTER, 0},
    {NOTE_C4, NOTE_TYPE_QUARTER, 0},
    {NOTE_G3, NOTE_TYPE_QUARTER, 0},
    {NOTE_D4, NOTE_TYPE_QUARTER, 0},

    //--

    {NOTE_A3, NOTE_TYPE_QUARTER, 0},
    {NOTE_A3, NOTE_TYPE_EIGHTH_DOT, 0},
    {NOTE_A3, NOTE_TYPE_SIXTEENTH, 0},
    {NOTE_D4, NOTE_TYPE_QUARTER, 0},
    {NOTE_A3, NOTE_TYPE_QUARTER, 0},

    //--

    {NOTE_G3, NOTE_TYPE_EIGHTH_DOT, 0},
    {NOTE_G3, NOTE_TYPE_SIXTEENTH, 0},
    {NOTE_A3, NOTE_TYPE_QUARTER, 0},
    {NOTE_D4, NOTE_TYPE_QUARTER, 0},
    {NOTE_A3, NOTE_TYPE_QUARTER, 0},

    //--

    {NOTE_REST, NOTE_TYPE_QUARTER, 0},
    {NOTE_A3, NOTE_TYPE_QUARTER, 0},
    {NOTE_A3, NOTE_TYPE_QUARTER, 0},
    {NOTE_A3, NOTE_TYPE_QUARTER, 0},

    //--

    {NOTE_C4, NOTE_TYPE_QUARTER, 0},
    {NOTE_C4, NOTE_TYPE_QUARTER, 0},
    {NOTE_G3, NOTE_TYPE_QUARTER, 0},
    {NOTE_D4, NOTE_TYPE_QUARTER, 0},

    //--

    {NOTE_A3, NOTE_TYPE_QUARTER, 0},
    {NOTE_A3, NOTE_TYPE_EIGHTH_DOT, 0},
    {NOTE_A3, NOTE_TYPE_SIXTEENTH, 0},
    {NOTE_D4, NOTE_TYPE_QUARTER, 0},
    {NOTE_A3, NOTE_TYPE_QUARTER, 0},

    //--

    {NOTE_G3, NOTE_TYPE_EIGHTH_DOT, 0},
    {NOTE_G3, NOTE_TYPE_SIXTEENTH, 0},
    {NOTE_A3, NOTE_TYPE_QUARTER, 0},
    {NOTE_D4, NOTE_TYPE_QUARTER, 0},
    {NOTE_A3, NOTE_TYPE_QUARTER, 0},

    //--

    {NOTE_A3, NOTE_TYPE_QUARTER, 0},
    {NOTE_A3, NOTE_TYPE_QUARTER_TRIPLET, 0},
    {NOTE_A3, NOTE_TYPE_QUARTER_TRIPLET, 0},
    {NOTE_A3, NOTE_TYPE_QUARTER_TRIPLET, 0},
    {NOTE_A3, NOTE_TYPE_QUARTER_TRIPLET, 0},
    {NOTE_A3, NOTE_TYPE_QUARTER_TRIPLET, 0},
    {NOTE_A3, NOTE_TYPE_QUARTER_TRIPLET, 0},
    {NOTE_A3, NOTE_TYPE_QUARTER_TRIPLET, 0},
    {NOTE_A3, NOTE_TYPE_QUARTER_TRIPLET, 0},
    {NOTE_A3, NOTE_TYPE_QUARTER_TRIPLET, 0},

    //--

    {NOTE_A3, NOTE_TYPE_QUARTER_TRIPLET, 0},
    {NOTE_A3, NOTE_TYPE_QUARTER_TRIPLET, 0},
    {NOTE_A3, NOTE_TYPE_QUARTER_TRIPLET, 0},
    {NOTE_A3, NOTE_TYPE_QUARTER_TRIPLET, 0},
    {NOTE_A3, NOTE_TYPE_QUARTER_TRIPLET, 0},
    {NOTE_A3, NOTE_TYPE_QUARTER_TRIPLET, 0},
    {NOTE_A3, NOTE_TYPE_QUARTER_TRIPLET, 0},
    {NOTE_A3, NOTE_TYPE_QUARTER_TRIPLET, 0},
    {NOTE_A3, NOTE_TYPE_QUARTER_TRIPLET, 0},
    {NOTE_C4, NOTE_TYPE_QUARTER, 0},

    //--

    {NOTE_REST, NOTE_TYPE_QUARTER, 0},
    {NOTE_A3, NOTE_TYPE_QUARTER_TRIPLET, 0},
    {NOTE_A3, NOTE_TYPE_QUARTER_TRIPLET, 0},
    {NOTE_A3, NOTE_TYPE_QUARTER_TRIPLET, 0},
    {NOTE_A3, NOTE_TYPE_QUARTER_TRIPLET, 0},
    {NOTE_A3, NOTE_TYPE_QUARTER_TRIPLET, 0},
    {NOTE_A3, NOTE_TYPE_QUARTER_TRIPLET, 0},
    {NOTE_A3, NOTE_TYPE_QUARTER_TRIPLET, 0},
    {NOTE_A3, NOTE_TYPE_QUARTER_TRIPLET, 0},
    {NOTE_A3, NOTE_TYPE_QUARTER_TRIPLET, 0},

    //--

    {NOTE_A3, NOTE_TYPE_QUARTER_TRIPLET, 0},
    {NOTE_A3, NOTE_TYPE_QUARTER_TRIPLET, 0},
    {NOTE_A3, NOTE_TYPE_QUARTER_TRIPLET, 0},
    {NOTE_A3, NOTE_TYPE_QUARTER_TRIPLET, 0},
    {NOTE_A3, NOTE_TYPE_QUARTER_TRIPLET, 0},
    {NOTE_A3, NOTE_TYPE_QUARTER_TRIPLET, 0},
    {NOTE_A3, NOTE_TYPE_QUARTER_TRIPLET, 0},
    {NOTE_A3, NOTE_TYPE_QUARTER_TRIPLET, 0},
    {NOTE_A3, NOTE_TYPE_QUARTER_TRIPLET, 0},
    {NOTE_C4, NOTE_TYPE_QUARTER, 0},

    //--

    {NOTE_REST, NOTE_TYPE_QUARTER, 0},
    {NOTE_A3, NOTE_TYPE_QUARTER_TRIPLET, 0},
    {NOTE_A3, NOTE_TYPE_QUARTER_TRIPLET, 0},
    {NOTE_A3, NOTE_TYPE_QUARTER_TRIPLET, 0},
    {NOTE_A3, NOTE_TYPE_QUARTER_TRIPLET, 0},
    {NOTE_A3, NOTE_TYPE_QUARTER_TRIPLET, 0},
    {NOTE_A3, NOTE_TYPE_QUARTER_TRIPLET, 0},
    {NOTE_A3, NOTE_TYPE_QUARTER_TRIPLET, 0},
    {NOTE_A3, NOTE_TYPE_QUARTER_TRIPLET, 0},
    {NOTE_A3, NOTE_TYPE_QUARTER_TRIPLET, 0},

    //--

    {NOTE_A3, NOTE_TYPE_QUARTER_TRIPLET, 0},
    {NOTE_A3, NOTE_TYPE_QUARTER_TRIPLET, 0},
    {NOTE_A3, NOTE_TYPE_QUARTER_TRIPLET, 0},
    {NOTE_A3, NOTE_TYPE_QUARTER_TRIPLET, 0},
    {NOTE_A3, NOTE_TYPE_QUARTER_TRIPLET, 0},
    {NOTE_A3, NOTE_TYPE_QUARTER_TRIPLET, 0},
    {NOTE_A3, NOTE_TYPE_QUARTER_TRIPLET, 0},
    {NOTE_A3, NOTE_TYPE_QUARTER_TRIPLET, 0},
    {NOTE_A3, NOTE_TYPE_QUARTER_TRIPLET, 0},
    {NOTE_C4, NOTE_TYPE_QUARTER, 0},

    //--

    {NOTE_A3, NOTE_TYPE_QUARTER_TRIPLET, 0},
    {NOTE_A3, NOTE_TYPE_QUARTER_TRIPLET, 0},
    {NOTE_A3, NOTE_TYPE_QUARTER_TRIPLET, 0},
    {NOTE_A3, NOTE_TYPE_QUARTER_TRIPLET, 0},
    {NOTE_A3, NOTE_TYPE_QUARTER_TRIPLET, 0},
    {NOTE_A3, NOTE_TYPE_QUARTER_TRIPLET, 0},
    {NOTE_A3, NOTE_TYPE_QUARTER_TRIPLET, 0},
    {NOTE_A3, NOTE_TYPE_QUARTER_TRIPLET, 0},
    {NOTE_A3, NOTE_TYPE_QUARTER_TRIPLET, 0},
    {NOTE_C3, NOTE_TYPE_QUARTER, 0},

    //--

    {NOTE_A3, NOTE_TYPE_QUARTER_TRIPLET, 0},
    {NOTE_A3, NOTE_TYPE_QUARTER_TRIPLET, 0},
    {NOTE_A3, NOTE_TYPE_QUARTER_TRIPLET, 0},
    {NOTE_A3, NOTE_TYPE_QUARTER_TRIPLET, 0},
    {NOTE_A3, NOTE_TYPE_QUARTER_TRIPLET, 0},
    {NOTE_A3, NOTE_TYPE_QUARTER_TRIPLET, 0},
    {NOTE_A3, NOTE_TYPE_QUARTER_TRIPLET, 0},
    {NOTE_A3, NOTE_TYPE_QUARTER_TRIPLET, 0},
    {NOTE_A3, NOTE_TYPE_QUARTER_TRIPLET, 0},
    {NOTE_C3, NOTE_TYPE_QUARTER, 0}
  }
};
