/**
  * @file songs/ZeldaOpening.c
  * @brief Note sequence asset for "Legend of Zelda Opening".
  *
  * Defines a `SongNotes` constant with the title, tempo, and ordered note
  * events used by the audio/synth playback system. See `Song.h` for structure
  * details and playback integration.
  *
  * Usage
  * - Reference the symbol `ZeldaOpening` to schedule or play this melody.
  *
  * Notes
  * - All timing is encoded via `NoteType`; rests use `NOTE_REST` entries.
  */
#include "Song.h"

const SongNotes ZeldaOpening = {
  "Legend of Zelda Opening",
  90,   // Tempo
  232,   // Number of Notes
  {
    {NOTE_AS3, NOTE_TYPE_QUARTER, 0},
    {NOTE_AS2, NOTE_TYPE_QUARTER, 0},
    {NOTE_F3, NOTE_TYPE_EIGHTH, 0},
    {NOTE_F3, NOTE_TYPE_EIGHTH, 0},
    {NOTE_F3, NOTE_TYPE_EIGHTH, 0},
    {NOTE_AS3, NOTE_TYPE_EIGHTH, 0},

    // --

    {NOTE_GS3, NOTE_TYPE_SIXTEENTH, 0},
    {NOTE_FS3, NOTE_TYPE_SIXTEENTH, 0},
    {NOTE_GS3, NOTE_TYPE_EIGHTH, 0},
    {NOTE_DS3, NOTE_TYPE_QUARTER, 0},
    {NOTE_GS3, NOTE_TYPE_HALF, 0},

    // --

    {NOTE_AS3, NOTE_TYPE_QUARTER, 0},
    {NOTE_AS2, NOTE_TYPE_QUARTER, 0},
    {NOTE_FS3, NOTE_TYPE_EIGHTH, 0},
    {NOTE_FS3, NOTE_TYPE_EIGHTH, 0},
    {NOTE_FS3, NOTE_TYPE_EIGHTH, 0},
    {NOTE_AS3, NOTE_TYPE_EIGHTH, 0},

    // --

    {NOTE_A3, NOTE_TYPE_SIXTEENTH, 0},
    {NOTE_G3, NOTE_TYPE_SIXTEENTH, 0},
    {NOTE_A3, NOTE_TYPE_EIGHTH, 0},
    {NOTE_F3, NOTE_TYPE_QUARTER, 0},
    {NOTE_A3, NOTE_TYPE_HALF, 0},
    
    // --

    {NOTE_CS3, NOTE_TYPE_EIGHTH, 0},
    {NOTE_CS3, NOTE_TYPE_SIXTEENTH, 0},
    {NOTE_AS2, NOTE_TYPE_SIXTEENTH, 0},
    {NOTE_F3, NOTE_TYPE_EIGHTH, 0},
    {NOTE_F3, NOTE_TYPE_SIXTEENTH, 0},
    {NOTE_AS2, NOTE_TYPE_SIXTEENTH, 0},
    {NOTE_F3, NOTE_TYPE_EIGHTH, 0},
    {NOTE_F3, NOTE_TYPE_SIXTEENTH, 0},
    {NOTE_AS2, NOTE_TYPE_SIXTEENTH, 0},
    {NOTE_F3, NOTE_TYPE_SIXTEENTH, 0},
    {NOTE_AS2, NOTE_TYPE_SIXTEENTH, 0},
    {NOTE_F3, NOTE_TYPE_SIXTEENTH, 0},
    {NOTE_AS2, NOTE_TYPE_SIXTEENTH, 0},

    // --

    {NOTE_CS3, NOTE_TYPE_EIGHTH, 0},
    {NOTE_CS3, NOTE_TYPE_SIXTEENTH, 0},
    {NOTE_AS2, NOTE_TYPE_SIXTEENTH, 0},
    {NOTE_F3, NOTE_TYPE_EIGHTH, 0},
    {NOTE_F3, NOTE_TYPE_SIXTEENTH, 0},
    {NOTE_AS2, NOTE_TYPE_SIXTEENTH, 0},
    {NOTE_F3, NOTE_TYPE_EIGHTH, 0},
    {NOTE_F3, NOTE_TYPE_SIXTEENTH, 0},
    {NOTE_AS2, NOTE_TYPE_SIXTEENTH, 0},
    {NOTE_F3, NOTE_TYPE_SIXTEENTH, 0},
    {NOTE_AS2, NOTE_TYPE_SIXTEENTH, 0},
    {NOTE_F3, NOTE_TYPE_SIXTEENTH, 0},
    {NOTE_AS2, NOTE_TYPE_SIXTEENTH, 0},

    // --

    {NOTE_AS3, NOTE_TYPE_QUARTER, 0},
    {NOTE_F3, NOTE_TYPE_QUARTER_DOT, 0},
    {NOTE_AS3, NOTE_TYPE_EIGHTH, 0},
    {NOTE_AS3, NOTE_TYPE_SIXTEENTH, 0},
    {NOTE_C4, NOTE_TYPE_SIXTEENTH, 0},
    {NOTE_D4, NOTE_TYPE_SIXTEENTH, 0},
    {NOTE_DS4, NOTE_TYPE_SIXTEENTH, 0},

    // --

    {NOTE_F4, NOTE_TYPE_EIGHTH, 0},
    {NOTE_AS2, NOTE_TYPE_EIGHTH, 0},
    {NOTE_AS2, NOTE_TYPE_SIXTEENTH, 0},
    {NOTE_C3, NOTE_TYPE_SIXTEENTH, 0},
    {NOTE_D3, NOTE_TYPE_SIXTEENTH, 0},
    {NOTE_DS3, NOTE_TYPE_SIXTEENTH, 0},
    {NOTE_F3, NOTE_TYPE_EIGHTH, 0},
    {NOTE_DS3, NOTE_TYPE_SIXTEENTH, 0},
    {NOTE_GS2, NOTE_TYPE_SIXTEENTH, 0},
    {NOTE_DS3, NOTE_TYPE_SIXTEENTH, 0},
    {NOTE_GS2, NOTE_TYPE_SIXTEENTH, 0},
    {NOTE_DS3, NOTE_TYPE_SIXTEENTH, 0},
    {NOTE_GS2, NOTE_TYPE_SIXTEENTH, 0},

    // --

    {NOTE_AS3, NOTE_TYPE_QUARTER, 0},
    {NOTE_F3, NOTE_TYPE_QUARTER_DOT, 0},
    {NOTE_AS3, NOTE_TYPE_EIGHTH, 0},
    {NOTE_AS3, NOTE_TYPE_SIXTEENTH, 0},
    {NOTE_C4, NOTE_TYPE_SIXTEENTH, 0},
    {NOTE_D4, NOTE_TYPE_SIXTEENTH, 0},
    {NOTE_DS4, NOTE_TYPE_SIXTEENTH, 0},

    // --

    {NOTE_F4, NOTE_TYPE_EIGHTH, 0},
    {NOTE_AS2, NOTE_TYPE_EIGHTH, 0},
    {NOTE_AS2, NOTE_TYPE_SIXTEENTH, 0},
    {NOTE_C3, NOTE_TYPE_SIXTEENTH, 0},
    {NOTE_D3, NOTE_TYPE_SIXTEENTH, 0},
    {NOTE_DS3, NOTE_TYPE_SIXTEENTH, 0},
    {NOTE_F3, NOTE_TYPE_EIGHTH, 0},
    {NOTE_C3, NOTE_TYPE_SIXTEENTH, 0},
    {NOTE_F2, NOTE_TYPE_SIXTEENTH, 0},
    {NOTE_C3, NOTE_TYPE_SIXTEENTH, 0},
    {NOTE_F2, NOTE_TYPE_SIXTEENTH, 0},
    {NOTE_C3, NOTE_TYPE_SIXTEENTH, 0},
    {NOTE_F2, NOTE_TYPE_SIXTEENTH, 0},

    // --

    {NOTE_AS3, NOTE_TYPE_QUARTER, 0},
    {NOTE_F3, NOTE_TYPE_QUARTER_DOT, 0},
    {NOTE_AS3, NOTE_TYPE_EIGHTH, 0},
    {NOTE_AS3, NOTE_TYPE_SIXTEENTH, 0},
    {NOTE_C4, NOTE_TYPE_SIXTEENTH, 0},
    {NOTE_D4, NOTE_TYPE_SIXTEENTH, 0},
    {NOTE_DS4, NOTE_TYPE_SIXTEENTH, 0},

    // --

    {NOTE_F4, NOTE_TYPE_EIGHTH, 0},
    {NOTE_AS3, NOTE_TYPE_EIGHTH, 0},
    {NOTE_AS3, NOTE_TYPE_SIXTEENTH, 0},
    {NOTE_C4, NOTE_TYPE_SIXTEENTH, 0},
    {NOTE_D4, NOTE_TYPE_SIXTEENTH, 0},
    {NOTE_DS4, NOTE_TYPE_SIXTEENTH, 0},
    {NOTE_F4, NOTE_TYPE_QUARTER, 0},
    {NOTE_F4, NOTE_TYPE_QUARTER_TRIPLET, 0},
    {NOTE_FS4, NOTE_TYPE_QUARTER_TRIPLET, 0},
    {NOTE_GS4, NOTE_TYPE_QUARTER_TRIPLET, 0},

    // --

    {NOTE_AS4, NOTE_TYPE_QUARTER, 0},
    {NOTE_FS3, NOTE_TYPE_SIXTEENTH, 0},
    {NOTE_GS3, NOTE_TYPE_SIXTEENTH, 0},
    {NOTE_AS3, NOTE_TYPE_SIXTEENTH, 0},
    {NOTE_C4, NOTE_TYPE_SIXTEENTH, 0},
    {NOTE_CS4, NOTE_TYPE_QUARTER_TRIPLET_DOUBLE, 0},
    {NOTE_AS4, NOTE_TYPE_QUARTER_TRIPLET, 0},
    {NOTE_AS4, NOTE_TYPE_QUARTER_TRIPLET, 0},
    {NOTE_GS4, NOTE_TYPE_QUARTER_TRIPLET, 0},
    {NOTE_FS4, NOTE_TYPE_QUARTER_TRIPLET, 0},

    // --

    {NOTE_GS4, NOTE_TYPE_EIGHTH_DOT, 0},
    {NOTE_FS4, NOTE_TYPE_SIXTEENTH, 0},
    {NOTE_F4, NOTE_TYPE_EIGHTH, 0},
    {NOTE_F4, NOTE_TYPE_SIXTEENTH, 0},
    {NOTE_DS4, NOTE_TYPE_SIXTEENTH, 0},
    {NOTE_F4, NOTE_TYPE_QUARTER, 0},
    {NOTE_F4, NOTE_TYPE_QUARTER, 0},

    // -- 

    {NOTE_DS4, NOTE_TYPE_EIGHTH, 0},
    {NOTE_DS4, NOTE_TYPE_SIXTEENTH, 0},
    {NOTE_F4, NOTE_TYPE_SIXTEENTH, 0},
    {NOTE_FS4, NOTE_TYPE_EIGHTH, 0},
    {NOTE_DS4, NOTE_TYPE_SIXTEENTH, 0},
    {NOTE_F4, NOTE_TYPE_SIXTEENTH, 0},
    {NOTE_FS4, NOTE_TYPE_QUARTER, 0},
    {NOTE_F4, NOTE_TYPE_EIGHTH, 0},
    {NOTE_DS4, NOTE_TYPE_EIGHTH, 0},

    // -- 

    {NOTE_CS4, NOTE_TYPE_EIGHTH, 0},
    {NOTE_CS4, NOTE_TYPE_SIXTEENTH, 0},
    {NOTE_DS4, NOTE_TYPE_SIXTEENTH, 0},
    {NOTE_F4, NOTE_TYPE_EIGHTH, 0},
    {NOTE_CS4, NOTE_TYPE_SIXTEENTH, 0},
    {NOTE_DS4, NOTE_TYPE_SIXTEENTH, 0},
    {NOTE_F4, NOTE_TYPE_QUARTER, 0},
    {NOTE_DS4, NOTE_TYPE_EIGHTH, 0},
    {NOTE_CS4, NOTE_TYPE_EIGHTH, 0},

    // --

    {NOTE_C4, NOTE_TYPE_EIGHTH, 0},
    {NOTE_C4, NOTE_TYPE_SIXTEENTH, 0},
    {NOTE_D4, NOTE_TYPE_SIXTEENTH, 0},
    {NOTE_E4, NOTE_TYPE_EIGHTH, 0},
    {NOTE_C4, NOTE_TYPE_SIXTEENTH, 0},
    {NOTE_D4, NOTE_TYPE_SIXTEENTH, 0},
    {NOTE_E4, NOTE_TYPE_EIGHTH, 0},
    {NOTE_F4, NOTE_TYPE_EIGHTH, 0},
    {NOTE_G4, NOTE_TYPE_EIGHTH, 0},
    {NOTE_C5, NOTE_TYPE_EIGHTH, 0},

    // --

    {NOTE_F4, NOTE_TYPE_EIGHTH, 0},
    {NOTE_F3, NOTE_TYPE_SIXTEENTH, 0},
    {NOTE_F3, NOTE_TYPE_SIXTEENTH, 0},
    {NOTE_F3, NOTE_TYPE_EIGHTH, 0},
    {NOTE_F3, NOTE_TYPE_SIXTEENTH, 0},
    {NOTE_F3, NOTE_TYPE_SIXTEENTH, 0},
    {NOTE_F3, NOTE_TYPE_EIGHTH, 0},
    {NOTE_F3, NOTE_TYPE_SIXTEENTH, 0},
    {NOTE_F3, NOTE_TYPE_SIXTEENTH, 0},
    {NOTE_F3, NOTE_TYPE_EIGHTH, 0},
    {NOTE_F3, NOTE_TYPE_EIGHTH, 0},

    // --

    {NOTE_AS3, NOTE_TYPE_QUARTER, 0},
    {NOTE_F3, NOTE_TYPE_QUARTER_DOT, 0},
    {NOTE_AS3, NOTE_TYPE_EIGHTH, 0},
    {NOTE_AS3, NOTE_TYPE_SIXTEENTH, 0},
    {NOTE_C4, NOTE_TYPE_SIXTEENTH, 0},
    {NOTE_D4, NOTE_TYPE_SIXTEENTH, 0},
    {NOTE_DS4, NOTE_TYPE_SIXTEENTH, 0},

    // -- 

    {NOTE_F4, NOTE_TYPE_EIGHTH, 0},
    {NOTE_AS3, NOTE_TYPE_EIGHTH, 0},
    {NOTE_AS3, NOTE_TYPE_SIXTEENTH, 0},
    {NOTE_C4, NOTE_TYPE_SIXTEENTH, 0},
    {NOTE_D4, NOTE_TYPE_SIXTEENTH, 0},
    {NOTE_DS4, NOTE_TYPE_SIXTEENTH, 0},
    {NOTE_F4, NOTE_TYPE_QUARTER_TRIPLET_DOUBLE, 0},
    {NOTE_F4, NOTE_TYPE_QUARTER_TRIPLET, 0},
    {NOTE_F4, NOTE_TYPE_QUARTER_TRIPLET, 0},
    {NOTE_FS4, NOTE_TYPE_QUARTER_TRIPLET, 0},
    {NOTE_GS4, NOTE_TYPE_QUARTER_TRIPLET, 0},

    // --

    {NOTE_AS4, NOTE_TYPE_HALF_DOT, 0},
    {NOTE_CS5, NOTE_TYPE_QUARTER, 0},

    // --

    {NOTE_C5, NOTE_TYPE_QUARTER, 0},
    {NOTE_A4, NOTE_TYPE_HALF, 0},
    {NOTE_F4, NOTE_TYPE_QUARTER, 0},

    // --

    {NOTE_FS4, NOTE_TYPE_QUARTER_TRIPLET, 0},
    {NOTE_AS2, NOTE_TYPE_QUARTER_TRIPLET, 0},
    {NOTE_CS3, NOTE_TYPE_QUARTER_TRIPLET, 0},
    {NOTE_E3, NOTE_TYPE_QUARTER_TRIPLET, 0},
    {NOTE_AS3, NOTE_TYPE_QUARTER_TRIPLET, 0},
    {NOTE_CS4, NOTE_TYPE_QUARTER_TRIPLET, 0},
    {NOTE_E4, NOTE_TYPE_QUARTER, 0},
    {NOTE_AS4, NOTE_TYPE_QUARTER, 0},

    // --

    {NOTE_A4, NOTE_TYPE_QUARTER, 0},
    {NOTE_F4, NOTE_TYPE_HALF, 0},
    {NOTE_F4, NOTE_TYPE_QUARTER, 0},

    // +++

    {NOTE_FS4, NOTE_TYPE_QUARTER_TRIPLET, 0},
    {NOTE_AS2, NOTE_TYPE_QUARTER_TRIPLET, 0},
    {NOTE_CS3, NOTE_TYPE_QUARTER_TRIPLET, 0},
    {NOTE_E3, NOTE_TYPE_QUARTER_TRIPLET, 0},
    {NOTE_AS3, NOTE_TYPE_QUARTER_TRIPLET, 0},
    {NOTE_CS4, NOTE_TYPE_QUARTER_TRIPLET, 0},
    {NOTE_E4, NOTE_TYPE_QUARTER, 0},
    {NOTE_AS4, NOTE_TYPE_QUARTER, 0},

    // --

    {NOTE_A4, NOTE_TYPE_QUARTER, 0},
    {NOTE_F4, NOTE_TYPE_HALF, 0},
    {NOTE_D4, NOTE_TYPE_QUARTER, 0},

    // --

    {NOTE_DS4, NOTE_TYPE_HALF_DOT, 0},
    {NOTE_FS4, NOTE_TYPE_QUARTER, 0},

    // --

    {NOTE_F4, NOTE_TYPE_QUARTER, 0},
    {NOTE_CS4, NOTE_TYPE_HALF, 0},
    {NOTE_AS3, NOTE_TYPE_QUARTER, 0},

    // -- 

    {NOTE_C4, NOTE_TYPE_EIGHTH, 0},
    {NOTE_C4, NOTE_TYPE_SIXTEENTH, 0},
    {NOTE_D4, NOTE_TYPE_SIXTEENTH, 0},
    {NOTE_E4, NOTE_TYPE_EIGHTH, 0},
    {NOTE_C4, NOTE_TYPE_SIXTEENTH, 0},
    {NOTE_D4, NOTE_TYPE_SIXTEENTH, 0},
    {NOTE_E4, NOTE_TYPE_EIGHTH, 0},
    {NOTE_F4, NOTE_TYPE_EIGHTH, 0},
    {NOTE_G4, NOTE_TYPE_EIGHTH, 0},
    {NOTE_C5, NOTE_TYPE_EIGHTH, 0},

    // --

    {NOTE_F4, NOTE_TYPE_EIGHTH, 0},
    {NOTE_F3, NOTE_TYPE_SIXTEENTH, 0},
    {NOTE_F3, NOTE_TYPE_SIXTEENTH, 0},
    {NOTE_F3, NOTE_TYPE_EIGHTH, 0},
    {NOTE_F3, NOTE_TYPE_SIXTEENTH, 0},
    {NOTE_F3, NOTE_TYPE_SIXTEENTH, 0},
    {NOTE_F3, NOTE_TYPE_EIGHTH, 0},
    {NOTE_F3, NOTE_TYPE_SIXTEENTH, 0},
    {NOTE_F3, NOTE_TYPE_SIXTEENTH, 0},
    {NOTE_F3, NOTE_TYPE_EIGHTH, 0},
    {NOTE_F3, NOTE_TYPE_EIGHTH, 0},
  }
};
