
#include "Song.h"

SongNotes ZeldaTheme = {
  "Zelda Theme",
  88,  // Tempo
  90,   // Number of Notes
  {
    {NOTE_BF4, NOTE_TYPE_HALF, 1},
    {NOTE_BF4, NOTE_TYPE_EIGHTH, 0},
    {NOTE_F3, NOTE_TYPE_EIGHTH, 0},
    {NOTE_F3, NOTE_TYPE_EIGHTH, 0},
    {NOTE_BF4, NOTE_TYPE_EIGHTH, 0},
    {NOTE_AF3, NOTE_TYPE_SIXTEENTH, 0},
    {NOTE_GF3, NOTE_TYPE_SIXTEENTH, 0},
    {NOTE_AF3, NOTE_TYPE_HALF_DOT_DOT, 0},
    {NOTE_BF4, NOTE_TYPE_HALF, 1},
    {NOTE_BF4, NOTE_TYPE_EIGHTH, 0},
    {NOTE_GF3, NOTE_TYPE_EIGHTH, 0},
    {NOTE_GF3, NOTE_TYPE_EIGHTH, 0},
    {NOTE_BF4, NOTE_TYPE_EIGHTH, 0},
    {NOTE_AF3, NOTE_TYPE_SIXTEENTH, 0},
    {NOTE_GF3, NOTE_TYPE_SIXTEENTH, 0},
    {NOTE_AF3, NOTE_TYPE_HALF_DOT_DOT, 0},
    {NOTE_REST, NOTE_TYPE_HALF, 0},
    {NOTE_REST, NOTE_TYPE_QUARTER, 0},
    {NOTE_BF4, NOTE_TYPE_QUARTER, 0},
    {NOTE_F3, NOTE_TYPE_QUARTER, 1},
    {NOTE_F3, NOTE_TYPE_EIGHTH, 0},
    {NOTE_BF4, NOTE_TYPE_EIGHTH, 0},
    {NOTE_BF4, NOTE_TYPE_SIXTEENTH, 0},
    {NOTE_C4, NOTE_TYPE_SIXTEENTH, 0},
    {NOTE_DS4, NOTE_TYPE_SIXTEENTH, 0},
    {NOTE_EF4, NOTE_TYPE_SIXTEENTH, 0},
    {NOTE_F4, NOTE_TYPE_HALF, 0},
    {NOTE_F4, NOTE_TYPE_SIXTEENTH, 0},
    {NOTE_F4, NOTE_TYPE_SIXTEENTH, 0},
    {NOTE_F4, NOTE_TYPE_SIXTEENTH, 0},
    {NOTE_G4, NOTE_TYPE_SIXTEENTH, 0},
    {NOTE_A5, NOTE_TYPE_SIXTEENTH, 0},
    {NOTE_B5, NOTE_TYPE_HALF, 1},
    {NOTE_B5, NOTE_TYPE_EIGHTH, 0},
    {NOTE_B5, NOTE_TYPE_EIGHTH, 0},
    {NOTE_B5, NOTE_TYPE_EIGHTH, 0},
    {NOTE_A5, NOTE_TYPE_EIGHTH, 0},
    {NOTE_G5, NOTE_TYPE_EIGHTH, 0},
    {NOTE_B5, NOTE_TYPE_HALF, 0},
    {NOTE_B5, NOTE_TYPE_EIGHTH, 0},
    {NOTE_B5, NOTE_TYPE_EIGHTH, 0},
    {NOTE_B5, NOTE_TYPE_EIGHTH, 0},
    {NOTE_A5, NOTE_TYPE_EIGHTH, 0},
    {NOTE_G4, NOTE_TYPE_EIGHTH, 0},
    {NOTE_A5, NOTE_TYPE_EIGHTH, 0},
    {NOTE_G4, NOTE_TYPE_EIGHTH, 0},
    {NOTE_F4, NOTE_TYPE_HALF, 0},
    {NOTE_F4, NOTE_TYPE_QUARTER, 0},
    {NOTE_EF4, NOTE_TYPE_EIGHTH, 0},
    {NOTE_F4, NOTE_TYPE_EIGHTH, 0},
    {NOTE_G4, NOTE_TYPE_QUARTER, 1},
    {NOTE_G4, NOTE_TYPE_QUARTER, 0},
    {NOTE_F4, NOTE_TYPE_QUARTER, 0},
    {NOTE_EF4, NOTE_TYPE_QUARTER, 0},
    {NOTE_DF4, NOTE_TYPE_EIGHTH, 0},
    {NOTE_EF4, NOTE_TYPE_EIGHTH, 0},
    {NOTE_F4, NOTE_TYPE_QUARTER, 1},
    {NOTE_F4, NOTE_TYPE_QUARTER, 0},
    {NOTE_EF4, NOTE_TYPE_EIGHTH, 0},
    {NOTE_DF4, NOTE_TYPE_EIGHTH, 0},
    {NOTE_C4, NOTE_TYPE_EIGHTH, 0},
    {NOTE_DS4, NOTE_TYPE_EIGHTH, 0},
    {NOTE_E4, NOTE_TYPE_HALF, 0},
    {NOTE_G4, NOTE_TYPE_QUARTER, 0},
    {NOTE_F4, NOTE_TYPE_EIGHTH, 0},
    {NOTE_F3, NOTE_TYPE_SIXTEENTH, 0},
    {NOTE_F3, NOTE_TYPE_SIXTEENTH, 0},
    {NOTE_F3, NOTE_TYPE_EIGHTH, 0},
    {NOTE_F3, NOTE_TYPE_SIXTEENTH, 0},
    {NOTE_F3, NOTE_TYPE_SIXTEENTH, 0},
    {NOTE_F3, NOTE_TYPE_EIGHTH, 0},
    {NOTE_F3, NOTE_TYPE_SIXTEENTH, 0},
    {NOTE_F3, NOTE_TYPE_SIXTEENTH, 0},
    {NOTE_F3, NOTE_TYPE_EIGHTH, 0},
    {NOTE_F3, NOTE_TYPE_EIGHTH, 0},
    {NOTE_B3, NOTE_TYPE_QUARTER, 0},
    {NOTE_F3, NOTE_TYPE_QUARTER, 1},
    {NOTE_F3, NOTE_TYPE_EIGHTH, 0},
    {NOTE_BF4, NOTE_TYPE_EIGHTH, 0},
    {NOTE_BF4, NOTE_TYPE_SIXTEENTH, 0},
    {NOTE_C4, NOTE_TYPE_SIXTEENTH, 0},
    {NOTE_DS4, NOTE_TYPE_SIXTEENTH, 0},
    {NOTE_EF4, NOTE_TYPE_SIXTEENTH, 0},
    {NOTE_F4, NOTE_TYPE_HALF, 0},
    {NOTE_F4, NOTE_TYPE_EIGHTH, 0},
    {NOTE_F4, NOTE_TYPE_EIGHTH, 0},
    {NOTE_F4, NOTE_TYPE_EIGHTH, 0},
    {NOTE_G4, NOTE_TYPE_EIGHTH, 0},
    {NOTE_A5, NOTE_TYPE_EIGHTH, 0},
    {NOTE_B5, NOTE_TYPE_HALF_DOT, 0}
  }
};
